<?xml version="1.0" encoding="UTF-8" standalone="no"?>
<svg
   data-v-fde0c5aa=""
   viewBox="0 0 300 300"
   class="iconAbove"
   version="1.1"
   id="svg3"
   xmlns="http://www.w3.org/2000/svg"
   xmlns:svg="http://www.w3.org/2000/svg">
  <!---->
  <defs
     data-v-fde0c5aa=""
     id="defs1">
    <!---->
  </defs>
  <rect
     data-v-fde0c5aa=""
     fill="#be4826"
     x="0"
     y="0"
     width="300"
     height="300"
     class="logo-background-square"
     id="rect1"
     ry="61" />
  <defs
     data-v-fde0c5aa=""
     id="defs2">
    <!---->
  </defs>
  <defs
     data-v-fde0c5aa=""
     id="defs3">
    <!---->
  </defs>
  <!---->
  <g
     id="g8"
     transform="translate(0,3.9999984)">
    <g
       data-v-fde0c5aa=""
       id="71e36529-9fd8-4819-8680-372e58aeab60"
       stroke="none"
       fill="#ffffff"
       transform="matrix(8.5394653,0,0,8.5394653,96.02631,33.80903)">
      <path
         d="M 5.696,2.793 C 6.226,3.081 7.531,4.646 8.231,4.411 8.657,4.268 7.903,3.017 7.358,2.321 7.498,2.027 9.091,2.097 9.563,2.091 c 1.844,0.928 3.078,2.622 3.078,4.558 0,2.93 -2.83,5.308 -6.32,5.308 C 2.831,11.957 0,9.58 0,6.649 0,4.959 0.94,3.453 2.406,2.481 2.734,2.411 2.81,2.626 4.191,2.318 3.536,2.565 2.942,3.727 3.211,4.374 4.04,4.554 5.096,2.818 5.696,2.794 Z M 2.674,2.284 C 3.971,1.597 4.034,1.567 5.271,1.434 5.544,1.404 5.94,0.782 5.83,0.138 5.909,0.078 6.048,-0.032 6.211,0.009 6.471,0.076 6.613,0.881 6.527,1.369 7.487,1.311 8.962,1.621 9.131,1.882 8.271,1.764 7.108,1.922 7.077,2.205 6.983,3.075 7.788,3.123 8.085,4.121 7.199,3.806 6.215,2.887 5.767,2.463 5.26,2.45 4.499,3.166 3.439,4.067 3.439,3.197 4.632,2.333 4.509,2.102 4.43,1.954 3.279,2.311 2.674,2.284 Z"
         id="path3" />
    </g>
    <g
       id="g7"
       transform="translate(201.85067,284.39507)">
      <path
         d="m -140.66269,-82.12183 v -32.60871 H -153 V -122 h 33.1072 v 7.26946 h -12.33732 v 32.60871 z m 35.43343,0.70619 c -5.23401,0 -9.13875,-1.30159 -11.71422,-3.90474 -2.54777,-2.60317 -3.82165,-6.63253 -3.82165,-12.08808 v 0 c 0,-5.45556 1.27388,-9.48492 3.82165,-12.08807 2.57547,-2.60316 6.48021,-3.90474 11.71422,-3.90474 v 0 c 5.23401,0 9.13874,1.30158 11.71421,3.90474 2.57546,2.60315 3.86319,6.63251 3.86319,12.08807 v 0 c 0,5.45555 -1.28773,9.48491 -3.86319,12.08808 -2.57547,2.60315 -6.4802,3.90474 -11.71421,3.90474 z m 0,-6.52175 c 2.60315,0 4.48629,-0.74771 5.64941,-2.24315 1.16311,-1.49543 1.74466,-3.75242 1.74466,-6.77098 v 0 -0.91388 c 0,-3.01855 -0.58155,-5.27554 -1.74466,-6.77098 -1.16312,-1.49543 -3.04626,-2.24315 -5.64941,-2.24315 v 0 c -2.60317,0 -4.47246,0.74772 -5.60788,2.24315 -1.1631,1.49544 -1.74467,3.75243 -1.74467,6.77098 v 0 0.91388 c 0,3.01856 0.58157,5.27555 1.74467,6.77098 1.13542,1.49544 3.00472,2.24315 5.60788,2.24315 z m 21.93299,5.81556 v -30.57326 h 6.77098 l 0.58155,3.98781 h 0.4154 c 2.24315,-3.12932 5.15094,-4.69399 8.72336,-4.69399 v 0 c 3.87704,0 6.54943,1.56467 8.01717,4.69399 v 0 h 0.49848 c 2.32622,-3.12932 5.34479,-4.69399 9.05566,-4.69399 v 0 c 2.90779,0 5.22017,0.85848 6.93714,2.57547 1.74467,1.68928 2.61702,4.41706 2.61702,8.18333 v 0 20.52064 h -7.97564 v -18.81751 c 0,-3.6278 -1.49544,-5.4417 -4.48629,-5.4417 v 0 c -1.55082,0 -2.8247,0.63693 -3.82167,1.91082 -1.02464,1.2462 -1.53697,2.81086 -1.53697,4.694 v 0 17.65439 h -7.97563 v -18.81751 c 0,-3.6278 -1.48158,-5.4417 -4.44475,-5.4417 v 0 c -1.55082,0 -2.83856,0.63693 -3.86321,1.91082 -1.05233,1.2462 -1.5785,2.81086 -1.5785,4.694 v 0 17.65439 z m 58.73723,0.70619 c -2.38162,0 -4.55553,-0.6231 -6.52174,-1.86931 -1.99392,-1.24618 -2.99087,-3.48933 -2.99087,-6.72944 v 0 c 0,-3.93242 1.62005,-6.71559 4.86016,-8.34948 3.2124,-1.6616 7.76793,-2.49238 13.66658,-2.49238 v 0 -2.11854 c 0,-1.35697 -0.30463,-2.4093 -0.91388,-3.15702 -0.60925,-0.74772 -1.74467,-1.12157 -3.40626,-1.12157 v 0 c -1.77236,0 -3.04625,0.27693 -3.82165,0.83079 -0.74772,0.55386 -1.12159,1.19081 -1.12159,1.91083 v 0 0.87234 h -7.68484 c -0.0277,-0.22155 -0.0416,-0.65079 -0.0416,-1.28774 v 0 c 0,-2.54777 1.13542,-4.59707 3.40627,-6.14789 2.27083,-1.5508 5.27554,-2.32622 9.01413,-2.32622 v 0 c 4.20935,0 7.35253,0.85848 9.42951,2.57547 2.0493,1.68928 3.07395,4.14012 3.07395,7.35253 v 0 13.50043 c 0,0.69233 0.19387,1.20465 0.58156,1.53697 0.38768,0.33232 0.87233,0.49848 1.45388,0.49848 v 0 h 1.6616 v 5.60786 c -1.2462,0.60925 -2.78317,0.91389 -4.61092,0.91389 v 0 c -1.5785,0 -2.90777,-0.34616 -3.98781,-1.0385 -1.05235,-0.69234 -1.77236,-1.68929 -2.16007,-2.99087 v 0 h -0.37386 c -1.10772,1.32928 -2.39546,2.32623 -3.86319,2.99087 -1.44005,0.69233 -3.32319,1.0385 -5.64941,1.0385 z m 2.49239,-6.27251 c 2.24314,0 3.89089,-0.63695 4.94322,-1.91084 1.05234,-1.24618 1.57852,-2.92162 1.57852,-5.0263 v 0 -0.91387 c -6.95099,0 -10.42648,1.5508 -10.42648,4.65244 v 0 c 0,0.96927 0.31848,1.74467 0.9554,2.32623 0.63695,0.58155 1.62006,0.87234 2.94934,0.87234 z m 30.98866,6.27251 c -2.88009,0 -4.92939,-0.77542 -6.14789,-2.32624 -1.24619,-1.55082 -1.86929,-3.50319 -1.86929,-5.85711 v 0 -16.57435 h -3.6555 v -6.52175 H 1.071 l 1.32927,-8.59874 h 6.48021 v 8.59874 h 5.27554 v 6.52175 H 8.88048 v 15.74357 c 0,1.66158 0.83078,2.49238 2.49238,2.49238 v 0 h 2.78316 v 5.60786 c -0.66464,0.22154 -1.48159,0.42925 -2.45084,0.6231 -0.99697,0.19387 -1.92469,0.29079 -2.78317,0.29079 z m 24.7577,0 c -5.23401,0 -9.12491,-1.30159 -11.67268,-3.90474 -2.54777,-2.60317 -3.82166,-6.63253 -3.82166,-12.08808 v 0 c 0,-5.45556 1.27389,-9.48492 3.82166,-12.08807 2.54777,-2.60316 6.43867,-3.90474 11.67268,-3.90474 v 0 c 5.23401,0 9.13875,1.30158 11.71422,3.90474 2.60315,2.60315 3.90473,6.63251 3.90473,12.08807 v 0 c 0,5.45555 -1.30158,9.48491 -3.90473,12.08808 -2.57547,2.60315 -6.48021,3.90474 -11.71422,3.90474 z m 0,-6.52175 c 2.60315,0 4.48629,-0.74771 5.64941,-2.24315 1.16312,-1.49543 1.74467,-3.75242 1.74467,-6.77098 v 0 -0.91388 c 0,-3.01855 -0.58155,-5.27554 -1.74467,-6.77098 -1.16312,-1.49543 -3.04626,-2.24315 -5.64941,-2.24315 v 0 c -2.57547,0 -4.44476,0.74772 -5.60787,2.24315 -1.13542,1.49544 -1.70312,3.75243 -1.70312,6.77098 v 0 0.91388 c 0,3.01856 0.5677,5.27555 1.70312,6.77098 1.16311,1.49544 3.0324,2.24315 5.60787,2.24315 z"
         id="path2"
         style="fill:#ffffff;stroke-width:4.15397" />
      <g
         id="g5"
         transform="matrix(1.4502171,0,0,1.4502171,-397.91897,-382.09992)">
        <g
           data-v-fde0c5aa=""
           id="g4"
           fill="#ffffff"
           transform="matrix(2.8643825,0,0,2.8643825,31.308057,209.71807)">
          <g
             id="g6">
            <path
               d="M 56.67,12.29 V 9.3207228 4.44 H 53.7 V 2.69 h 7.97 V 4.44 H 58.7 v 7.85 z M 62.71,3.91 V 2.17 h 1.91 v 1.74 z m 0,8.38 V 4.93 h 1.91 v 7.36 z m 3.89,0 V 4.93 h 1.64 l 0.14,0.96 h 0.09 c 0.546667,-0.7533333 1.246667,-1.13 2.1,-1.13 v 0 c 0.933333,0 1.58,0.3766667 1.94,1.13 v 0 h 0.11 C 73.18,5.1366667 73.906667,4.76 74.8,4.76 v 0 c 0.7,0 1.256667,0.2066667 1.67,0.62 0.42,0.4066667 0.63,1.0633333 0.63,1.97 v 0 4.94 H 75.18 V 7.76 c 0,-0.8733333 -0.36,-1.31 -1.08,-1.31 v 0 c -0.373333,0 -0.68,0.1533333 -0.92,0.46 -0.246667,0.3 -0.37,0.6766667 -0.37,1.13 v 0 4.25 H 70.9 V 7.76 c 0,-0.8733333 -0.36,-1.31 -1.08,-1.31 v 0 c -0.373333,0 -0.683333,0.1533333 -0.93,0.46 -0.246667,0.3 -0.37,0.6766667 -0.37,1.13 v 0 4.25 z m 15.48,0.17 c -1.186667,0 -2.07,-0.313333 -2.65,-0.94 -0.586667,-0.626667 -0.88,-1.5966667 -0.88,-2.91 v 0 c 0,-1.3133333 0.293333,-2.2833333 0.88,-2.91 0.58,-0.6266667 1.463333,-0.94 2.65,-0.94 v 0 c 1.093333,0 1.91,0.3166667 2.45,0.95 0.54,0.6266667 0.81,1.5933333 0.81,2.9 v 0 0.45 H 80.5 c 0.02,0.6533333 0.15,1.136667 0.39,1.45 0.246667,0.313333 0.653333,0.47 1.22,0.47 v 0 c 0.4,0 0.723333,-0.113333 0.97,-0.34 0.246667,-0.226667 0.37,-0.543333 0.37,-0.95 v 0 h 1.89 c 0,0.92 -0.296667,1.613333 -0.89,2.08 -0.6,0.46 -1.39,0.69 -2.37,0.69 z M 80.53,7.78 h 2.83 c 0,-1.0133333 -0.426667,-1.52 -1.28,-1.52 v 0 c -0.486667,0 -0.853333,0.1266667 -1.1,0.38 -0.246667,0.2466667 -0.396667,0.6266667 -0.45,1.14 z m 6.3,4.51 V 4.93 h 1.64 l 0.15,1.19 h 0.1 c 0.16,-0.42 0.363333,-0.7533333 0.61,-1 0.253333,-0.24 0.586667,-0.36 1,-0.36 v 0 c 0.173333,0 0.33,0.016667 0.47,0.05 0.133333,0.033333 0.22,0.06 0.26,0.08 v 0 1.79 h -0.54 c -0.62,0 -1.07,0.17 -1.35,0.51 -0.28,0.34 -0.42,0.8566667 -0.42,1.55 v 0 3.55 z"
               id="path4" />
          </g>
        </g>
      </g>
    </g>
  </g>
</svg>
